<svg version="1.1" xmlns="http://www.w3.org/2000/svg" xmlns:xlink="http://www.w3.org/1999/xlink" x="0px" y="0px"
	 viewBox="0 0 100 100" style="enable-background:new 0 0 100 100;" xml:space="preserve">
<g id="Vrstva_20">
	<g>
		<g>
			<path d="M68.118,80.562c-6.578,0-11.929-5.352-11.929-11.93c0-6.577,5.352-11.929,11.929-11.929
				c6.578,0,11.93,5.352,11.93,11.929C80.048,75.21,74.696,80.562,68.118,80.562z M68.118,59.703c-4.923,0-8.929,4.006-8.929,8.929
				c0,4.924,4.006,8.93,8.929,8.93c4.924,0,8.93-4.006,8.93-8.93C77.048,63.709,73.042,59.703,68.118,59.703z"/>
		</g>
		<g>
			<path d="M31.118,42.562c-6.578,0-11.929-5.352-11.929-11.93c0-6.578,5.352-11.929,11.929-11.929s11.929,5.351,11.929,11.929
				C43.047,37.21,37.696,42.562,31.118,42.562z M31.118,21.703c-4.923,0-8.929,4.005-8.929,8.929c0,4.924,4.006,8.93,8.929,8.93
				c4.923,0,8.929-4.006,8.929-8.93C40.047,25.709,36.041,21.703,31.118,21.703z"/>
		</g>
		<g>
			<path d="M19.737,74.763c-0.384,0-0.767-0.146-1.06-0.439c-0.586-0.586-0.586-1.535,0-2.121l53.525-53.525
				c0.586-0.586,1.535-0.586,2.121,0c0.586,0.586,0.586,1.536,0,2.121L20.798,74.323C20.505,74.616,20.121,74.763,19.737,74.763z"/>
		</g>
		<g>
			<path d="M26.737,81.763c-0.384,0-0.767-0.146-1.06-0.439c-0.586-0.586-0.586-1.535,0-2.121l53.525-53.525
				c0.586-0.586,1.535-0.586,2.121,0c0.586,0.586,0.586,1.536,0,2.121L27.798,81.323C27.505,81.616,27.121,81.763,26.737,81.763z"/>
		</g>
	</g>
</g>
<script  type="text/javascript">
    <![CDATA[
         var c=window.location.search.split('color=')[1]; c=parseInt(c,16); if(!isNaN(c)){c=c.toString(16);var p=document.getElementsByTagName('path');for(var i=0,l=p.length;i<l;i++){var s=p[i].style;s.fill='#'+c;} var p2=document.getElementsByTagName('polygon');for(var i=0,l=p2.length;i<l;i++){var s=p2[i].style;s.fill='#'+c;} var p3=document.getElementsByTagName('circle');for(var i=0,l=p3.length;i<l;i++){var s=p3[i].style;s.fill='#'+c;} }
        ]]>
</script>
</svg>
