<svg version="1.1" xmlns="http://www.w3.org/2000/svg" xmlns:xlink="http://www.w3.org/1999/xlink" x="0px" y="0px"
	 viewBox="0 0 100 100" style="enable-background:new 0 0 100 100;" xml:space="preserve">
<g id="Vrstva_19">
	<g>
		<g>
			<path d="M32,74.5c-0.828,0-1.5-0.672-1.5-1.5V38h-11v35c0,0.828-0.672,1.5-1.5,1.5s-1.5-0.672-1.5-1.5V36.5
				c0-0.829,0.672-1.5,1.5-1.5h14c0.828,0,1.5,0.671,1.5,1.5V73C33.5,73.828,32.828,74.5,32,74.5z"/>
		</g>
		<g>
			<path d="M57,74.5c-0.828,0-1.5-0.672-1.5-1.5V20h-12v53c0,0.828-0.672,1.5-1.5,1.5s-1.5-0.672-1.5-1.5V18.5
				c0-0.829,0.672-1.5,1.5-1.5h15c0.828,0,1.5,0.671,1.5,1.5V73C58.5,73.828,57.828,74.5,57,74.5z"/>
		</g>
		<g>
			<path d="M82,74.5c-0.828,0-1.5-0.672-1.5-1.5V34h-12v39c0,0.828-0.672,1.5-1.5,1.5s-1.5-0.672-1.5-1.5V32.5
				c0-0.829,0.672-1.5,1.5-1.5h15c0.828,0,1.5,0.671,1.5,1.5V73C83.5,73.828,82.828,74.5,82,74.5z"/>
		</g>
		<g>
			<path d="M81.5,83h-63c-0.828,0-1.5-0.672-1.5-1.5s0.672-1.5,1.5-1.5h63c0.828,0,1.5,0.672,1.5,1.5S82.328,83,81.5,83z"/>
		</g>
	</g>
</g>
<script  type="text/javascript">
    <![CDATA[
         var c=window.location.search.split('color=')[1]; c=parseInt(c,16); if(!isNaN(c)){c=c.toString(16);var p=document.getElementsByTagName('path');for(var i=0,l=p.length;i<l;i++){var s=p[i].style;s.fill='#'+c;} var p2=document.getElementsByTagName('polygon');for(var i=0,l=p2.length;i<l;i++){var s=p2[i].style;s.fill='#'+c;} var p3=document.getElementsByTagName('circle');for(var i=0,l=p3.length;i<l;i++){var s=p3[i].style;s.fill='#'+c;} }
        ]]>
</script>
</svg>
